<?xml version="1.0" standalone="no"?>
<!DOCTYPE svg PUBLIC "-//W3C//DTD SVG 1.1//EN" "http://www.w3.org/Graphics/SVG/1.1/DTD/svg11.dtd" >
<svg xmlns="http://www.w3.org/2000/svg">
<metadata></metadata>
<defs>
<font id="utm_neutraregular" horiz-adv-x="1601" >
<font-face units-per-em="2048" ascent="1638" descent="-410" />
<missing-glyph horiz-adv-x="495" />
<glyph horiz-adv-x="0" />
<glyph unicode="&#xd;" horiz-adv-x="571" />
<glyph unicode=" "  horiz-adv-x="495" />
<glyph unicode="&#x09;" horiz-adv-x="495" />
<glyph unicode="&#xa0;" horiz-adv-x="495" />
<glyph unicode="!" horiz-adv-x="618" d="M104 180q0 87 62 145q59 56 143 56q82 0 142 -56q63 -58 63 -145q0 -86 -63 -145q-60 -55 -142 -55q-84 0 -143 55q-62 58 -62 145zM116 1393h385l-41 -922h-303z" />
<glyph unicode="&#x22;" horiz-adv-x="872" d="M49 1393h348l-35 -486h-278zM475 1393h348l-35 -486h-282z" />
<glyph unicode="#" horiz-adv-x="1157" d="M45 498v270h180l37 170h-121v270h183l40 185h254l-41 -185h160l41 185h254l-41 -185h121v-270h-182l-37 -170h123v-270h-183l-40 -185h-254l41 185h-160l-41 -185h-254l41 185h-121zM479 768h160l37 170h-160l-5 -27q-4 -21 -13 -58q-3 -15 -7 -31q-3 -13 -6 -27z" />
<glyph unicode="$" horiz-adv-x="1210" d="M24 248l264 198q99 -138 246 -159v272l-94 31q-170 57 -254 150q-94 104 -94 264q0 183 139 293q122 96 303 110v176h149v-180q132 -16 232 -73q84 -47 139 -120l-209 -213q-37 41 -65 62q-43 30 -97 41v-244l68 -22q223 -78 316 -187q85 -101 85 -264q0 -364 -469 -399 v-222h-149v220q-177 11 -319 94q-117 68 -191 172zM436 1010q0 -63 98 -101v193q-98 -19 -98 -92zM683 289q117 21 117 106q0 70 -117 113v-219z" />
<glyph unicode="%" horiz-adv-x="1984" d="M40 999q0 176 126 294q122 116 296 116t297 -116q127 -118 127 -294q0 -175 -127 -293q-123 -116 -297 -116t-296 116q-126 118 -126 293zM327 999q0 -149 135 -149q137 0 137 149q0 150 -137 150q-135 0 -135 -150zM419 0l874 1393h271l-875 -1393h-270zM1097 389 q0 175 125 294q123 116 297 116q173 0 297 -116q127 -119 127 -294t-127 -294q-124 -115 -297 -115q-174 0 -297 115q-125 119 -125 294zM1383 389q0 -149 136 -149q137 0 137 149q0 150 -137 150q-136 0 -136 -150z" />
<glyph unicode="&#x26;" horiz-adv-x="1411" d="M36 389q0 147 82 245q70 84 227 161q-86 141 -86 274q0 154 115 248q113 92 293 92q177 0 284 -85t107 -230q0 -211 -252 -349l168 -210q43 86 49 192h311q-8 -251 -159 -444l223 -283h-432l-51 63q-155 -83 -342 -83q-237 0 -385 108q-152 113 -152 301zM417 426 q0 -150 182 -150q65 0 129 25l-227 287q-84 -65 -84 -162zM595 1081q0 -67 59 -143q99 62 99 139q0 84 -76 84q-82 0 -82 -80z" />
<glyph unicode="'" horiz-adv-x="557" d="M73 1214q0 86 60 142q58 53 141 53q85 0 146 -53q63 -56 63 -142q0 -99 -80 -210l-129 -183h-156l76 215q-121 39 -121 178z" />
<glyph unicode="(" horiz-adv-x="718" d="M73 698q0 149 37 285q33 121 95 231q54 95 128 179q62 70 135 131l215 -168q-120 -150 -172 -284q-63 -162 -63 -374q0 -210 66 -376q30 -75 76 -149q40 -64 99 -138l-221 -162q-74 61 -135 130q-74 85 -128 179q-62 109 -95 230q-37 137 -37 286z" />
<glyph unicode=")" horiz-adv-x="718" d="M28 35q59 74 99 138q46 74 76 149q67 166 67 376q0 212 -64 374q-52 134 -172 284l215 168q74 -61 135 -131q75 -84 128 -179q62 -110 95 -231q37 -136 37 -285t-37 -286q-33 -121 -95 -230q-53 -94 -128 -179q-61 -69 -135 -130z" />
<glyph unicode="*" horiz-adv-x="770" d="M47 1004l154 49l-154 49l121 225l119 -98l-31 164h254l-29 -168l121 102l121 -225l-154 -49l154 -49l-121 -226l-121 103l29 -168h-254l31 164l-119 -99z" />
<glyph unicode="+" horiz-adv-x="866" d="M55 524v297h221v244h314v-244h221v-297h-221v-243h-314v243h-221z" />
<glyph unicode="," horiz-adv-x="557" d="M73 186q0 86 60 141q58 54 141 54q85 0 146 -54q63 -55 63 -141q0 -49 -23 -103q-16 -40 -57 -108l-123 -206h-156l70 239q-121 39 -121 178z" />
<glyph unicode="-" horiz-adv-x="647" d="M73 438v297h500v-297h-500z" />
<glyph unicode="." horiz-adv-x="557" d="M73 180q0 87 62 145q59 56 143 56q82 0 142 -56q63 -58 63 -145q0 -86 -63 -145q-60 -55 -142 -55q-84 0 -143 55q-62 58 -62 145z" />
<glyph unicode="/" horiz-adv-x="1005" d="M38 0l588 1393h340l-588 -1393h-340z" />
<glyph unicode="0" d="M53 696q0 309 223 514q217 199 525 199q307 0 524 -199q223 -205 223 -514q0 -308 -223 -514q-217 -200 -524 -200q-308 0 -525 200q-223 206 -223 514zM434 696q0 -170 96 -277q100 -114 271 -114q170 0 270 114q96 107 96 277t-96 277q-100 112 -270 112 q-171 0 -271 -112q-96 -107 -96 -277z" />
<glyph unicode="1" horiz-adv-x="751" d="M43 1079v314h571v-1393h-372v1079h-199z" />
<glyph unicode="2" horiz-adv-x="1185" d="M37 29l602 643q70 77 99 126q42 70 42 138q0 156 -166 156q-178 0 -211 -215l-334 98q101 434 555 434q227 0 371 -119q148 -122 148 -323q0 -124 -63 -240q-52 -96 -165 -215l-194 -207h413v-305h-1091q-35 0 -6 29z" />
<glyph unicode="3" horiz-adv-x="1239" d="M20 305l305 158q36 -77 93 -119q67 -49 163 -49q227 0 227 194q0 195 -243 195q-114 0 -205 -33q-15 -5 -23 1q-8 7 0 20l291 407h-479v314h1026q19 0 6 -17l-348 -467q151 -29 245 -130q107 -118 107 -306q0 -221 -157 -357q-158 -136 -422 -136q-209 0 -368 95 q-146 87 -218 230z" />
<glyph unicode="4" horiz-adv-x="1361" d="M69 242v282l682 869h383v-856h160v-295h-160v-242h-356v242h-709zM446 537h332v421z" />
<glyph unicode="5" horiz-adv-x="1214" d="M20 279l299 165q32 -58 88 -97q70 -50 158 -50q215 0 215 180q0 193 -258 193q-101 0 -201 -35q-77 -26 -141 -68q-31 -19 -31 11v815h877v-314h-572v-147q23 9 58 14q43 6 100 6q262 0 409 -133q140 -128 140 -340q0 -227 -160 -363q-159 -136 -424 -136q-200 0 -349 85 q-139 78 -208 214z" />
<glyph unicode="6" horiz-adv-x="1253" d="M53 487q0 202 129 385l365 521h385l-297 -422q253 22 417 -130q152 -139 152 -345q0 -221 -165 -368q-165 -148 -415 -148q-244 0 -408 147q-163 146 -163 360zM411 496q0 -87 57 -148q60 -65 154 -65q96 0 156 65q55 60 55 148q0 89 -54 149q-59 66 -157 66 q-95 0 -154 -64q-57 -61 -57 -151z" />
<glyph unicode="7" horiz-adv-x="1200" d="M51 1079v314h1126q17 0 7 -23l-629 -1370h-393l499 1079h-610z" />
<glyph unicode="8" horiz-adv-x="1239" d="M49 436q0 266 258 377q-127 100 -127 252q0 148 119 244q123 100 321 100q199 0 321 -100q118 -96 118 -244q0 -154 -127 -250q258 -115 258 -379q0 -194 -147 -321q-156 -135 -423 -135q-266 0 -424 135q-147 127 -147 321zM403 465q0 -197 217 -197q215 0 215 197 q0 194 -215 194q-217 0 -217 -194zM489 1024q0 -121 131 -121q129 0 129 121q0 119 -129 119q-131 0 -131 -119z" />
<glyph unicode="9" horiz-adv-x="1253" d="M49 897q0 220 165 368t415 148q244 0 408 -147q163 -146 163 -361q0 -104 -40 -205q-36 -87 -105 -180l-390 -520h-385l314 414q-243 -12 -400 141q-145 141 -145 342zM420 897q0 -89 54 -150q59 -65 157 -65q95 0 154 64q57 60 57 151q0 87 -57 148q-60 65 -154 65 q-96 0 -156 -65q-55 -61 -55 -148z" />
<glyph unicode=":" horiz-adv-x="569" d="M79 180q0 87 62 145q59 56 143 56q82 0 142 -56q63 -58 63 -145q0 -86 -63 -145q-60 -55 -142 -55q-84 0 -143 55q-62 58 -62 145zM79 748q0 86 62 144q59 56 143 56q82 0 142 -56q63 -58 63 -144q0 -87 -63 -145q-60 -56 -142 -56q-84 0 -143 56q-62 58 -62 145z" />
<glyph unicode=";" horiz-adv-x="569" d="M79 186q0 86 60 141q58 54 141 54q85 0 146 -54q63 -55 63 -141q0 -49 -23 -103q-16 -40 -57 -108l-123 -206h-156l70 239q-121 39 -121 178zM79 748q0 86 62 144q59 56 143 56q82 0 142 -56q63 -58 63 -144q0 -87 -63 -145q-60 -56 -142 -56q-84 0 -143 56 q-62 58 -62 145z" />
<glyph unicode="&#x3c;" horiz-adv-x="856" d="M69 627q-29 16 0 32l746 431v-326l-250 -121l250 -121v-325z" />
<glyph unicode="=" horiz-adv-x="866" d="M55 299v297h756v-297h-756zM55 709v297h756v-297h-756z" />
<glyph unicode="&#x3e;" horiz-adv-x="856" d="M55 197v325l250 121l-250 121v326l745 -431q30 -16 0 -32z" />
<glyph unicode="?" horiz-adv-x="1062" d="M22 1139q57 119 178 191q134 79 316 79q225 0 364 -112q137 -111 137 -287q0 -343 -350 -412v-127h-344v360h152q168 0 168 142q0 129 -144 129q-123 0 -188 -121zM288 180q0 87 62 145q59 56 143 56q83 0 142 -56q63 -58 63 -145q0 -86 -63 -145q-59 -55 -142 -55 q-84 0 -143 55q-62 58 -62 145z" />
<glyph unicode="@" horiz-adv-x="1576" d="M47 680q0 316 224 526q217 203 528 203q321 0 526 -189q205 -188 205 -485q0 -206 -98 -322q-91 -108 -236 -108q-190 0 -256 109q-84 -109 -246 -109q-139 0 -238 104q-102 107 -102 263q0 157 102 264q99 104 238 104q134 0 193 -71v53h303v-393q0 -109 61 -109 q40 0 66 45q33 55 33 166q0 512 -558 512q-250 0 -404 -157q-153 -156 -153 -406q0 -253 155 -405q159 -156 431 -156q171 0 287 59l82 -147q-138 -80 -363 -80q-336 0 -553 194q-227 202 -227 535zM663 672q0 -115 115 -115q111 0 111 115q0 116 -111 116q-115 0 -115 -116 z" />
<glyph unicode="A" horiz-adv-x="1394" d="M8 0l678 1417q4 11 12 11t12 -11l676 -1417h-385l-53 119h-524l-51 -119h-365zM543 397h282l-143 324z" />
<glyph unicode="B" horiz-adv-x="1306" d="M120 0v1393h569q209 0 332 -90q125 -92 125 -250q0 -109 -46 -178q-38 -57 -114 -93q126 -35 197 -118q84 -97 84 -246q0 -418 -553 -418h-594zM480 295h226q188 0 188 158q0 155 -188 155h-226v-313zM480 879h181q118 0 118 106q0 113 -114 113h-185v-219z" />
<glyph unicode="C" horiz-adv-x="1413" d="M53 696q0 308 212 514q205 199 493 199q213 0 370 -85q137 -74 232 -214l-281 -190q-48 74 -112 113q-83 52 -203 52q-151 0 -242 -112q-88 -108 -88 -277q0 -168 91 -277q95 -114 251 -114q126 0 209 55q69 46 119 138l286 -185q-196 -331 -612 -331q-300 0 -509 200 q-216 205 -216 514z" />
<glyph unicode="D" horiz-adv-x="1409" d="M120 0v1393h539q307 0 502 -186q202 -193 202 -511t-202 -510q-195 -186 -502 -186h-539zM493 315h125q168 0 266 104q98 103 98 277q0 175 -98 278t-266 103h-125v-762z" />
<glyph unicode="E" horiz-adv-x="1185" d="M120 0v1393h977v-314h-604v-323h504v-297h-504v-146h633v-313h-1006z" />
<glyph unicode="F" horiz-adv-x="1130" d="M120 0v1393h946v-314h-573v-323h506v-314h-506v-442h-373z" />
<glyph unicode="G" horiz-adv-x="1474" d="M53 696q0 309 220 514q214 199 521 199q367 0 559 -248l-260 -225q-115 149 -307 149q-165 0 -261 -112q-91 -106 -91 -277q0 -173 94 -283q102 -118 279 -118q92 0 163 17q54 12 107 38v119h-276v287h608v-582q-111 -91 -236 -136q-156 -56 -370 -56q-313 0 -529 200 q-221 204 -221 514z" />
<glyph unicode="H" horiz-adv-x="1470" d="M120 0v1393h373v-637h483v637h373v-1393h-373v442h-483v-442h-373z" />
<glyph unicode="I" horiz-adv-x="630" d="M129 0v1393h373v-1393h-373z" />
<glyph unicode="J" horiz-adv-x="995" d="M12 211l281 180q26 -45 48 -64q31 -28 74 -28q97 0 97 119v975h372v-1002q0 -411 -426 -411q-168 0 -284 65q-105 58 -162 166z" />
<glyph unicode="K" horiz-adv-x="1396" d="M120 0v1393h373v-578l430 578h403l-463 -605l519 -788h-441l-332 506l-116 -144v-362h-373z" />
<glyph unicode="L" horiz-adv-x="1136" d="M120 0v1393h373v-1080h592v-313h-965z" />
<glyph unicode="M" horiz-adv-x="1693" d="M83 0l82 1407q2 11 6 11t12 -9l668 -750l657 750q8 9 12 9q5 0 7 -11l82 -1407h-367l-33 594l-348 -404q-9 -9 -18 0l-363 406l-32 -596h-365z" />
<glyph unicode="N" horiz-adv-x="1495" d="M120 0v1411q0 15 8 15q7 0 21 -11l874 -721v699h350v-1413q0 -15 -8 -15q-7 0 -20 10l-875 719v-694h-350z" />
<glyph unicode="O" d="M53 696q0 309 223 514q217 199 525 199q307 0 524 -199q223 -205 223 -514q0 -308 -223 -514q-217 -200 -524 -200q-308 0 -525 200q-223 206 -223 514zM434 696q0 -170 96 -277q100 -114 271 -114q170 0 270 114q96 107 96 277t-96 277q-100 112 -270 112 q-171 0 -271 -112q-96 -107 -96 -277z" />
<glyph unicode="P" horiz-adv-x="1286" d="M120 0v1393h528q274 0 434 -158q152 -150 152 -389t-152 -389q-160 -156 -434 -156h-155v-301h-373zM493 616h137q229 0 229 230q0 231 -229 231h-137v-461z" />
<glyph unicode="Q" d="M53 696q0 309 223 514q217 199 525 199q307 0 524 -199q223 -205 223 -514q0 -266 -173 -462q-165 -188 -421 -238v-250h-307v250q-256 50 -421 238q-173 196 -173 462zM434 696q0 -287 213 -372v247h307v-247q213 85 213 372q0 170 -96 277q-100 112 -270 112 q-171 0 -271 -112q-96 -107 -96 -277z" />
<glyph unicode="R" horiz-adv-x="1288" d="M120 0v1393h528q274 0 434 -158q152 -150 152 -389q0 -312 -252 -451l248 -395h-403l-195 319h-139v-319h-373zM493 616h137q229 0 229 230q0 231 -229 231h-137v-461z" />
<glyph unicode="S" horiz-adv-x="1163" d="M8 238l270 202q58 -71 119 -107q76 -44 172 -44q176 0 176 110q0 73 -137 119l-164 55q-163 55 -249 150q-97 107 -97 270q0 196 145 311q132 105 330 105q170 0 293 -56q99 -45 170 -128l-213 -224q-48 50 -95 73q-57 28 -134 28q-135 0 -135 -96q0 -70 98 -103l184 -61 q203 -67 291 -172q82 -97 82 -250q0 -202 -126 -316q-137 -124 -402 -124q-112 0 -211 24q-88 21 -163 62q-67 35 -122 83q-46 41 -82 89z" />
<glyph unicode="T" horiz-adv-x="1204" d="M47 1079v314h1110v-314h-369v-1079h-372v1079h-369z" />
<glyph unicode="U" horiz-adv-x="1421" d="M106 539v854h373v-850q0 -248 231 -248q232 0 232 248v850h372v-854q0 -272 -171 -420q-161 -139 -433 -139t-432 139q-172 148 -172 420z" />
<glyph unicode="V" horiz-adv-x="1353" d="M8 1393h397l285 -650l276 650h379l-657 -1407q-5 -10 -12 -10q-8 0 -13 10z" />
<glyph unicode="W" horiz-adv-x="1916" d="M8 1393h391l260 -654l299 680q3 8 8 8q6 0 9 -8l313 -680l248 654h373l-576 -1409q-5 -14 -11 -14t-14 14l-348 747l-344 -747q-4 -11 -12 -11t-12 11z" />
<glyph unicode="X" horiz-adv-x="1406" d="M18 0l481 748l-405 645h416l206 -353l209 353h387l-403 -629l479 -764h-416l-280 471l-287 -471h-387z" />
<glyph unicode="Y" horiz-adv-x="1445" d="M8 1393h410l315 -568l313 568h392l-525 -901v-492h-373v481z" />
<glyph unicode="Z" horiz-adv-x="1255" d="M29 20l616 1059h-512v314h1084q11 0 11 -7q0 -5 -5 -14l-617 -1059h566v-313h-1137q-11 0 -11 7q0 5 5 13z" />
<glyph unicode="[" horiz-adv-x="733" d="M120 0v1393h543v-295h-191v-803h191v-295h-543z" />
<glyph unicode="\" horiz-adv-x="1005" d="M38 1393h340l588 -1393h-340z" />
<glyph unicode="]" horiz-adv-x="733" d="M69 0v295h190v803h-190v295h543v-1393h-543z" />
<glyph unicode="^" horiz-adv-x="647" d="M73 438v297h500v-297h-500z" />
<glyph unicode="_" horiz-adv-x="716" d="M-4 -76h725v-301h-725v301z" />
<glyph unicode="`" horiz-adv-x="557" d="M73 999q0 100 80 211l129 183h156l-76 -215q121 -40 121 -179q0 -85 -61 -141q-58 -53 -140 -53q-86 0 -146 53q-63 56 -63 141z" />
<glyph unicode="a" horiz-adv-x="1394" d="M8 0l678 1417q4 11 12 11t12 -11l676 -1417h-385l-53 119h-524l-51 -119h-365zM543 397h282l-143 324z" />
<glyph unicode="b" horiz-adv-x="1306" d="M120 0v1393h569q209 0 332 -90q125 -92 125 -250q0 -109 -46 -178q-38 -57 -114 -93q126 -35 197 -118q84 -97 84 -246q0 -418 -553 -418h-594zM480 295h226q188 0 188 158q0 155 -188 155h-226v-313zM480 879h181q118 0 118 106q0 113 -114 113h-185v-219z" />
<glyph unicode="c" horiz-adv-x="1413" d="M53 696q0 308 212 514q205 199 493 199q213 0 370 -85q137 -74 232 -214l-281 -190q-48 74 -112 113q-83 52 -203 52q-151 0 -242 -112q-88 -108 -88 -277q0 -168 91 -277q95 -114 251 -114q126 0 209 55q69 46 119 138l286 -185q-196 -331 -612 -331q-300 0 -509 200 q-216 205 -216 514z" />
<glyph unicode="d" horiz-adv-x="1409" d="M120 0v1393h539q307 0 502 -186q202 -193 202 -511t-202 -510q-195 -186 -502 -186h-539zM493 315h125q168 0 266 104q98 103 98 277q0 175 -98 278t-266 103h-125v-762z" />
<glyph unicode="e" horiz-adv-x="1185" d="M120 0v1393h977v-314h-604v-323h504v-297h-504v-146h633v-313h-1006z" />
<glyph unicode="f" horiz-adv-x="1130" d="M120 0v1393h946v-314h-573v-323h506v-314h-506v-442h-373z" />
<glyph unicode="g" horiz-adv-x="1517" d="M53 696q0 310 213 514q207 199 508 199q415 0 590 -313l-297 -181q-44 78 -111 121q-79 49 -188 49q-160 0 -250 -112q-84 -105 -84 -277q0 -171 88 -278q94 -115 260 -115q223 0 291 166h-268v287h657l2 -60q0 -348 -188 -536q-179 -180 -496 -180q-302 0 -512 200 q-215 207 -215 516z" />
<glyph unicode="h" horiz-adv-x="1470" d="M120 0v1393h373v-637h483v637h373v-1393h-373v442h-483v-442h-373z" />
<glyph unicode="i" horiz-adv-x="630" d="M129 0v1393h373v-1393h-373z" />
<glyph unicode="j" horiz-adv-x="995" d="M12 211l281 180q26 -45 48 -64q31 -28 74 -28q97 0 97 119v975h372v-1002q0 -411 -426 -411q-168 0 -284 65q-105 58 -162 166z" />
<glyph unicode="k" horiz-adv-x="1374" d="M120 0v1393h373v-635l428 635h413l-550 -783l577 -610h-483l-385 420v-420h-373z" />
<glyph unicode="l" horiz-adv-x="1136" d="M120 0v1393h373v-1080h592v-313h-965z" />
<glyph unicode="m" horiz-adv-x="1699" d="M120 0v1417q0 13 5 13q4 0 13 -9l715 -690l707 690q5 5 10 5h2q6 -1 6 -9v-1417h-373v641l-350 -346q-9 -9 -18 0l-344 346v-641h-373z" />
<glyph unicode="n" horiz-adv-x="1495" d="M120 0v1411q0 15 8 15q7 0 21 -11l874 -721v699h350v-1413q0 -15 -8 -15q-7 0 -20 10l-875 719v-694h-350z" />
<glyph unicode="o" d="M53 696q0 309 223 514q217 199 525 199q307 0 524 -199q223 -205 223 -514q0 -308 -223 -514q-217 -200 -524 -200q-308 0 -525 200q-223 206 -223 514zM434 696q0 -170 96 -277q100 -114 271 -114q170 0 270 114q96 107 96 277t-96 277q-100 112 -270 112 q-171 0 -271 -112q-96 -107 -96 -277z" />
<glyph unicode="p" horiz-adv-x="1286" d="M120 0v1393h528q274 0 434 -158q152 -150 152 -389t-152 -389q-160 -156 -434 -156h-155v-301h-373zM493 616h137q229 0 229 230q0 231 -229 231h-137v-461z" />
<glyph unicode="q" d="M53 696q0 309 223 514q217 199 525 199q307 0 524 -199q223 -205 223 -514q0 -254 -168 -448l166 -166l-215 -215l-193 192q-162 -77 -337 -77q-308 0 -525 200q-223 206 -223 514zM434 696q0 -181 96 -289q98 -112 271 -112q46 0 94 10l-129 129l217 215l147 -149 q37 86 37 196q0 170 -96 277q-100 112 -270 112q-171 0 -271 -112q-96 -107 -96 -277z" />
<glyph unicode="r" horiz-adv-x="1288" d="M120 0v1393h528q274 0 434 -158q152 -150 152 -389q0 -312 -252 -451l248 -395h-403l-195 319h-139v-319h-373zM493 616h137q229 0 229 230q0 231 -229 231h-137v-461z" />
<glyph unicode="s" horiz-adv-x="1163" d="M8 238l270 202q58 -71 119 -107q76 -44 172 -44q176 0 176 110q0 73 -137 119l-164 55q-163 55 -249 150q-97 107 -97 270q0 196 145 311q132 105 330 105q170 0 293 -56q99 -45 170 -128l-213 -224q-48 50 -95 73q-57 28 -134 28q-135 0 -135 -96q0 -70 98 -103l184 -61 q203 -67 291 -172q82 -97 82 -250q0 -202 -126 -316q-137 -124 -402 -124q-112 0 -211 24q-88 21 -163 62q-67 35 -122 83q-46 41 -82 89z" />
<glyph unicode="t" horiz-adv-x="1204" d="M47 1079v314h1110v-314h-369v-1079h-372v1079h-369z" />
<glyph unicode="u" horiz-adv-x="1421" d="M106 539v854h373v-850q0 -248 231 -248q232 0 232 248v850h372v-854q0 -272 -171 -420q-161 -139 -433 -139t-432 139q-172 148 -172 420z" />
<glyph unicode="v" horiz-adv-x="1353" d="M8 1393h397l285 -650l276 650h379l-657 -1407q-5 -10 -12 -10q-8 0 -13 10z" />
<glyph unicode="w" horiz-adv-x="1916" d="M8 1393h391l260 -654l299 680q3 8 8 8q6 0 9 -8l313 -680l248 654h373l-576 -1409q-5 -14 -11 -14t-14 14l-348 747l-344 -747q-4 -11 -12 -11t-12 11z" />
<glyph unicode="x" horiz-adv-x="1384" d="M18 0l481 748l-405 645h416l206 -353l209 353h387l-403 -629l479 -764h-416l-280 471l-287 -471h-387z" />
<glyph unicode="y" horiz-adv-x="1445" d="M8 1393h410l315 -568l313 568h392l-525 -901v-492h-373v481z" />
<glyph unicode="z" horiz-adv-x="1255" d="M29 20l616 1059h-512v314h1084q11 0 11 -7q0 -5 -5 -14l-617 -1059h566v-313h-1137q-11 0 -11 7q0 5 5 13z" />
<glyph unicode="{" horiz-adv-x="847" d="M55 549v295h82q98 0 98 108v166q0 141 93 213q79 62 202 62h248v-295h-129q-62 0 -62 -66v-162q0 -148 -139 -174q139 -25 139 -174v-162q0 -65 62 -65h129v-295h-248q-123 0 -202 61q-93 73 -93 213v166q0 109 -98 109h-82z" />
<glyph unicode="|" horiz-adv-x="520" d="M102 -143v1679h315v-1679h-315z" />
<glyph unicode="}" horiz-adv-x="847" d="M69 0v295h129q61 0 61 65v162q0 149 140 174q-140 26 -140 174v162q0 66 -61 66h-129v295h248q123 0 202 -62q93 -72 93 -213v-166q0 -108 98 -108h82v-295h-82q-98 0 -98 -109v-166q0 -140 -93 -213q-79 -61 -202 -61h-248z" />
<glyph unicode="~" horiz-adv-x="991" d="M45 424q22 163 111 263q84 95 192 95q46 0 90 -12q32 -10 70 -29l56 -28q28 -13 46 -13q53 0 72 74l264 -35q-22 -163 -111 -263q-84 -95 -192 -95q-46 0 -90 13q-32 9 -70 28l-56 28q-28 13 -46 13q-53 0 -72 -74z" />
<glyph unicode="&#xa8;" horiz-adv-x="1024" />
<glyph unicode="&#xa9;" horiz-adv-x="1552" d="M61 696q0 304 213 511q208 202 502 202q293 0 502 -202q213 -207 213 -511t-213 -510q-209 -202 -502 -202q-294 0 -502 202q-213 206 -213 510zM208 696q0 -245 167 -409q163 -162 401 -162q237 0 401 162q166 164 166 409t-166 410q-164 162 -401 162q-238 0 -401 -162 q-167 -165 -167 -410zM337 696q0 188 132 316q128 125 311 125q223 0 340 -168l-225 -183q-43 60 -109 60q-137 0 -137 -150q0 -145 139 -145q71 0 117 61l231 -174q-119 -178 -356 -178q-183 0 -311 123q-132 126 -132 313z" />
<glyph unicode="&#xad;" horiz-adv-x="647" d="M73 438v297h500v-297h-500z" />
<glyph unicode="&#xae;" horiz-adv-x="800" d="M53 1069q0 148 102 246q99 96 244 96q147 0 246 -96q102 -97 102 -246q0 -146 -102 -244q-100 -96 -246 -96q-144 0 -244 96q-102 98 -102 244zM135 1069q0 -115 74 -190q75 -74 190 -74q116 0 192 74q76 75 76 190q0 119 -76 194q-76 74 -192 74t-190 -74 q-74 -75 -74 -194zM256 891v364h149q164 0 164 -135q0 -77 -65 -116l61 -113h-125l-47 88h-21v-88h-116zM372 1073h31q47 0 47 41q0 39 -47 39h-31v-80z" />
<glyph unicode="&#xb4;" horiz-adv-x="1024" />
<glyph unicode="&#xb6;" horiz-adv-x="1024" d="M93 1086q0 157 107.5 253t285.5 96h443v-70h-127v-1365h-82v1365h-166v-1365h-84v738q-174 8 -275.5 102.5t-101.5 245.5z" />
<glyph unicode="&#xbc;" horiz-adv-x="1950" />
<glyph unicode="&#xbd;" horiz-adv-x="1950" />
<glyph unicode="&#xbe;" horiz-adv-x="1950" />
<glyph unicode="&#xc0;" horiz-adv-x="1394" d="M8 0l678 1417q4 11 12 11t12 -11l676 -1417h-385l-53 119h-524l-51 -119h-365zM364 1851h385l82 -372h-272zM543 397h282l-143 324z" />
<glyph unicode="&#xc1;" horiz-adv-x="1394" d="M8 0l678 1417q4 11 12 11t12 -11l676 -1417h-385l-53 119h-524l-51 -119h-365zM543 397h282l-143 324zM561 1479l82 372h385l-195 -372h-272z" />
<glyph unicode="&#xc2;" horiz-adv-x="1394" d="M8 0l678 1417q4 11 12 11t12 -11l676 -1417h-385l-53 119h-524l-51 -119h-365zM358 1479l328 430q9 12 18 0l328 -430h-260l-76 80l-78 -80h-260zM543 397h282l-143 324z" />
<glyph unicode="&#xc3;" horiz-adv-x="1394" d="M8 0l678 1417q4 11 12 11t12 -11l676 -1417h-385l-53 119h-524l-51 -119h-365zM315 1507q21 152 96 234q68 74 160 74q59 0 132 -40l49 -28q25 -12 38 -12q43 0 62 69l225 -28q-19 -149 -95 -232q-69 -76 -161 -76q-59 0 -132 40l-49 28q-24 12 -38 12q-43 0 -62 -69z M543 397h282l-143 324z" />
<glyph unicode="&#xc8;" horiz-adv-x="1185" d="M120 0v1393h977v-314h-604v-323h504v-297h-504v-146h633v-313h-1006zM296 1851h385l82 -372h-272z" />
<glyph unicode="&#xc9;" horiz-adv-x="1185" d="M120 0v1393h977v-314h-604v-323h504v-297h-504v-146h633v-313h-1006zM411 1479l82 372h385l-195 -372h-272z" />
<glyph unicode="&#xca;" horiz-adv-x="1185" d="M120 0v1393h977v-314h-604v-323h504v-297h-504v-146h633v-313h-1006zM249 1479l328 430q9 12 18 0l328 -430h-260l-76 80l-78 -80h-260z" />
<glyph unicode="&#xcc;" horiz-adv-x="630" d="M24 1851h385l82 -372h-272zM128 0v1393h373v-1393h-373z" />
<glyph unicode="&#xcd;" horiz-adv-x="630" d="M129 0v1393h373v-1393h-373zM139 1479l82 372h385l-194 -372h-273z" />
<glyph unicode="&#xd2;" d="M53 696q0 309 223 514q217 199 525 199q307 0 524 -199q223 -205 223 -514q0 -308 -223 -514q-217 -200 -524 -200q-308 0 -525 200q-223 206 -223 514zM434 696q0 -170 96 -277q100 -114 271 -114q170 0 270 114q96 107 96 277t-96 277q-100 112 -270 112 q-171 0 -271 -112q-96 -107 -96 -277zM502 1851h385l81 -372h-272z" />
<glyph unicode="&#xd3;" d="M53 696q0 309 223 514q217 199 525 199q307 0 524 -199q223 -205 223 -514q0 -308 -223 -514q-217 -200 -524 -200q-308 0 -525 200q-223 206 -223 514zM434 696q0 -170 96 -277q100 -114 271 -114q170 0 270 114q96 107 96 277t-96 277q-100 112 -270 112 q-171 0 -271 -112q-96 -107 -96 -277zM616 1479l82 372h385l-194 -372h-273z" />
<glyph unicode="&#xd4;" d="M53 696q0 309 223 514q217 199 525 199q307 0 524 -199q223 -205 223 -514q0 -308 -223 -514q-217 -200 -524 -200q-308 0 -525 200q-223 206 -223 514zM434 696q0 -170 96 -277q100 -114 271 -114q170 0 270 114q96 107 96 277t-96 277q-100 112 -270 112 q-171 0 -271 -112q-96 -107 -96 -277zM454 1479l328 430q9 12 19 0l327 -430h-260l-76 80l-77 -80h-261z" />
<glyph unicode="&#xd5;" d="M53 696q0 309 223 514q217 199 525 199q307 0 524 -199q223 -205 223 -514q0 -308 -223 -514q-217 -200 -524 -200q-308 0 -525 200q-223 206 -223 514zM411 1507q21 152 96 234q68 74 160 74q59 0 132 -40l50 -28q24 -12 38 -12q42 0 61 69l225 -28q-19 -149 -95 -232 q-69 -76 -161 -76q-58 0 -132 40l-49 28q-24 12 -38 12q-42 0 -61 -69zM434 696q0 -170 96 -277q100 -114 271 -114q170 0 270 114q96 107 96 277t-96 277q-100 112 -270 112q-171 0 -271 -112q-96 -107 -96 -277z" />
<glyph unicode="&#xd9;" horiz-adv-x="1421" d="M106 539v854h373v-850q0 -248 231 -248q232 0 232 248v850h372v-854q0 -272 -171 -420q-161 -139 -433 -139t-432 139q-172 148 -172 420zM419 1851h385l82 -372h-272z" />
<glyph unicode="&#xda;" horiz-adv-x="1421" d="M106 539v854h373v-850q0 -248 231 -248q232 0 232 248v850h372v-854q0 -272 -171 -420q-161 -139 -433 -139t-432 139q-172 148 -172 420zM534 1479l82 372h385l-195 -372h-272z" />
<glyph unicode="&#xdd;" horiz-adv-x="1445" d="M8 1393h410l315 -568l313 568h392l-525 -901v-492h-373v481zM607 1479l82 372h385l-195 -372h-272z" />
<glyph unicode="&#xe0;" horiz-adv-x="1394" d="M8 0l678 1417q4 11 12 11t12 -11l676 -1417h-385l-53 119h-524l-51 -119h-365zM364 1851h385l82 -372h-272zM543 397h282l-143 324z" />
<glyph unicode="&#xe1;" horiz-adv-x="1394" d="M8 0l678 1417q4 11 12 11t12 -11l676 -1417h-385l-53 119h-524l-51 -119h-365zM543 397h282l-143 324zM561 1479l82 372h385l-195 -372h-272z" />
<glyph unicode="&#xe2;" horiz-adv-x="1394" d="M8 0l678 1417q4 11 12 11t12 -11l676 -1417h-385l-53 119h-524l-51 -119h-365zM358 1479l328 430q9 12 18 0l328 -430h-260l-76 80l-78 -80h-260zM543 397h282l-143 324z" />
<glyph unicode="&#xe3;" horiz-adv-x="1394" d="M8 0l678 1417q4 11 12 11t12 -11l676 -1417h-385l-53 119h-524l-51 -119h-365zM315 1507q21 152 96 234q68 74 160 74q59 0 132 -40l49 -28q25 -12 38 -12q43 0 62 69l225 -28q-19 -149 -95 -232q-69 -76 -161 -76q-59 0 -132 40l-49 28q-24 12 -38 12q-43 0 -62 -69z M543 397h282l-143 324z" />
<glyph unicode="&#xe8;" horiz-adv-x="1185" d="M120 0v1393h977v-314h-604v-323h504v-297h-504v-146h633v-313h-1006zM296 1851h385l82 -372h-272z" />
<glyph unicode="&#xe9;" horiz-adv-x="1185" d="M120 0v1393h977v-314h-604v-323h504v-297h-504v-146h633v-313h-1006zM411 1479l82 372h385l-195 -372h-272z" />
<glyph unicode="&#xea;" horiz-adv-x="1185" d="M120 0v1393h977v-314h-604v-323h504v-297h-504v-146h633v-313h-1006zM249 1479l328 430q9 12 18 0l328 -430h-260l-76 80l-78 -80h-260z" />
<glyph unicode="&#xec;" horiz-adv-x="630" d="M24 1851h385l82 -372h-272zM128 0v1393h373v-1393h-373z" />
<glyph unicode="&#xed;" horiz-adv-x="630" d="M129 0v1393h373v-1393h-373zM139 1479l82 372h385l-194 -372h-273z" />
<glyph unicode="&#xf2;" d="M53 696q0 309 223 514q217 199 525 199q307 0 524 -199q223 -205 223 -514q0 -308 -223 -514q-217 -200 -524 -200q-308 0 -525 200q-223 206 -223 514zM434 696q0 -170 96 -277q100 -114 271 -114q170 0 270 114q96 107 96 277t-96 277q-100 112 -270 112 q-171 0 -271 -112q-96 -107 -96 -277zM502 1851h385l81 -372h-272z" />
<glyph unicode="&#xf3;" d="M53 696q0 309 223 514q217 199 525 199q307 0 524 -199q223 -205 223 -514q0 -308 -223 -514q-217 -200 -524 -200q-308 0 -525 200q-223 206 -223 514zM434 696q0 -170 96 -277q100 -114 271 -114q170 0 270 114q96 107 96 277t-96 277q-100 112 -270 112 q-171 0 -271 -112q-96 -107 -96 -277zM616 1479l82 372h385l-194 -372h-273z" />
<glyph unicode="&#xf4;" d="M53 696q0 309 223 514q217 199 525 199q307 0 524 -199q223 -205 223 -514q0 -308 -223 -514q-217 -200 -524 -200q-308 0 -525 200q-223 206 -223 514zM434 696q0 -170 96 -277q100 -114 271 -114q170 0 270 114q96 107 96 277t-96 277q-100 112 -270 112 q-171 0 -271 -112q-96 -107 -96 -277zM454 1479l328 430q9 12 19 0l327 -430h-260l-76 80l-77 -80h-261z" />
<glyph unicode="&#xf5;" d="M53 696q0 309 223 514q217 199 525 199q307 0 524 -199q223 -205 223 -514q0 -308 -223 -514q-217 -200 -524 -200q-308 0 -525 200q-223 206 -223 514zM411 1507q21 152 96 234q68 74 160 74q59 0 132 -40l50 -28q24 -12 38 -12q42 0 61 69l225 -28q-19 -149 -95 -232 q-69 -76 -161 -76q-58 0 -132 40l-49 28q-24 12 -38 12q-42 0 -61 -69zM434 696q0 -170 96 -277q100 -114 271 -114q170 0 270 114q96 107 96 277t-96 277q-100 112 -270 112q-171 0 -271 -112q-96 -107 -96 -277z" />
<glyph unicode="&#xf7;" horiz-adv-x="1706" />
<glyph unicode="&#xf9;" horiz-adv-x="582" />
<glyph unicode="&#xfa;" horiz-adv-x="580" />
<glyph unicode="&#xfd;" horiz-adv-x="629" />
<glyph unicode="&#x2000;" horiz-adv-x="957" />
<glyph unicode="&#x2001;" horiz-adv-x="1915" />
<glyph unicode="&#x2002;" horiz-adv-x="957" />
<glyph unicode="&#x2003;" horiz-adv-x="1915" />
<glyph unicode="&#x2004;" horiz-adv-x="638" />
<glyph unicode="&#x2005;" horiz-adv-x="478" />
<glyph unicode="&#x2006;" horiz-adv-x="319" />
<glyph unicode="&#x2007;" horiz-adv-x="319" />
<glyph unicode="&#x2008;" horiz-adv-x="239" />
<glyph unicode="&#x2009;" horiz-adv-x="383" />
<glyph unicode="&#x200a;" horiz-adv-x="106" />
<glyph unicode="&#x2010;" horiz-adv-x="647" d="M73 438v297h500v-297h-500z" />
<glyph unicode="&#x2011;" horiz-adv-x="647" d="M73 438v297h500v-297h-500z" />
<glyph unicode="&#x2012;" horiz-adv-x="647" d="M73 438v297h500v-297h-500z" />
<glyph unicode="&#x2013;" horiz-adv-x="1171" d="M73 438v297h1024v-297h-1024z" />
<glyph unicode="&#x2014;" horiz-adv-x="2195" d="M73 438v297h2048v-297h-2048z" />
<glyph unicode="&#x2018;" horiz-adv-x="595" d="M73 999q0 100 80 211l129 183h156l-76 -215q121 -40 121 -179q0 -85 -61 -141q-58 -53 -140 -53q-86 0 -146 53q-63 56 -63 141z" />
<glyph unicode="&#x2019;" horiz-adv-x="576" d="M93 1214q0 86 60 142q58 53 140 53q86 0 146 -53q63 -56 63 -142q0 -99 -80 -210l-129 -183h-155l75 215q-120 39 -120 178z" />
<glyph unicode="&#x201c;" horiz-adv-x="1048" d="M73 999q0 100 80 211l129 183h156l-76 -215q121 -40 121 -179q0 -85 -61 -141q-58 -53 -140 -53q-86 0 -146 53q-63 56 -63 141zM565 999q0 100 79 211l129 183h156l-76 -215q121 -40 121 -179q0 -85 -60 -141q-58 -53 -141 -53q-85 0 -146 53q-62 56 -62 141z" />
<glyph unicode="&#x201d;" horiz-adv-x="1048" d="M73 1214q0 86 60 142q58 53 141 53q85 0 146 -53q63 -56 63 -142q0 -99 -80 -210l-129 -183h-156l76 215q-121 39 -121 178zM565 1214q0 86 60 142q58 53 140 53q86 0 146 -53q63 -56 63 -142q0 -99 -80 -210l-129 -183h-155l75 215q-120 39 -120 178z" />
<glyph unicode="&#x2026;" horiz-adv-x="1614" d="M73 180q0 87 62 145q59 56 143 56q82 0 142 -56q63 -58 63 -145q0 -86 -63 -145q-60 -55 -142 -55q-84 0 -143 55q-62 58 -62 145zM593 180q0 87 62 145q59 56 143 56q82 0 142 -56q63 -58 63 -145q0 -86 -63 -145q-60 -55 -142 -55q-84 0 -143 55q-62 58 -62 145z M1130 180q0 87 62 145q59 56 143 56q82 0 142 -56q63 -58 63 -145q0 -86 -63 -145q-60 -55 -142 -55q-84 0 -143 55q-62 58 -62 145z" />
<glyph unicode="&#x202f;" horiz-adv-x="383" />
<glyph unicode="&#x205f;" horiz-adv-x="478" />
<glyph unicode="&#x25fc;" horiz-adv-x="1395" d="M0 0v1395h1395v-1395h-1395z" />
</font>
</defs>
</svg>
